<?xml version="1.0" encoding="UTF-8"?><svg xmlns="http://www.w3.org/2000/svg" viewBox="0 0 72 72"><defs><style>.cls-1{fill:#fff;}.cls-2{fill:#1a3763;}</style></defs><g id="Layer_2"><circle class="cls-2" cx="36" cy="36" r="36"/></g><g id="Layer_1"><g><g><rect class="cls-1" x="18.31" y="24.25" width="2.01" height="17.57"/><rect class="cls-1" x="23.88" y="24.25" width="2.01" height="14.67"/><rect class="cls-1" x="29.45" y="24.25" width="2.01" height="12.14"/><rect class="cls-1" x="35.02" y="24.25" width="2.01" height="11.96"/><rect class="cls-1" x="40.6" y="24.25" width="2.01" height="12.14"/><rect class="cls-1" x="46.17" y="24.25" width="2.01" height="14.5"/><rect class="cls-1" x="51.74" y="24.25" width="2.01" height="17.83"/></g><rect class="cls-1" x="13.33" y="22.64" width="45.38" height="2.18"/><path class="cls-1" d="M19.23,43.73c4.47-3.95,10.44-6.12,16.79-6.12s12.32,2.18,16.79,6.12c1.32,1.17,2.46,2.44,3.4,3.8h2.43c-1.26-2.39-2.97-4.58-5.11-6.47-4.69-4.14-10.91-6.43-17.52-6.43s-12.82,2.28-17.52,6.43c-2.14,1.89-3.86,4.08-5.11,6.47h2.43c.94-1.35,2.08-2.63,3.4-3.8Z"/><path class="cls-1" d="M16.44,17.21h.15c.14,0,.25-.1,.25-.23v-2.35c0-.13-.11-.23-.25-.23h-6.01c-.14,0-.26,.1-.26,.23v2.35c0,.13,.11,.23,.26,.23h.15V57.6h5.72V17.21Z"/><path class="cls-1" d="M61.43,14.4h-6.01c-.14,0-.25,.1-.25,.23v2.35c0,.13,.11,.23,.25,.23h.15V57.6h5.72V17.23s0,0,0,0v-.02h.15c.14,0,.26-.1,.26-.23v-2.35c0-.13-.11-.23-.26-.23Z"/></g></g></svg>