<?xml version="1.0" encoding="UTF-8"?><svg xmlns="http://www.w3.org/2000/svg" viewBox="0 0 72 72"><defs><style>.cls-1{fill:#fff;}.cls-2{fill:#1a3763;}</style></defs><g id="Layer_2"><circle class="cls-2" cx="36" cy="36" r="36"/></g><g id="Layer_1"><path class="cls-1" d="M46.27,11.41v4.13H25.73v-4.13h-9.05c-.86,0-1.56,.7-1.56,1.56V60.21c0,.86,.7,1.56,1.56,1.56H55.32c.86,0,1.56-.7,1.56-1.56V12.97c0-.86-.7-1.56-1.56-1.56h-9.05Zm-2.12-2.18h-4.73c0-1.13-.68-2.17-1.77-2.74-1.1-.56-2.45-.56-3.54,0-1.1,.57-1.77,1.61-1.77,2.74h-4.73v4.22h16.54v-4.22Zm-15.73,34.56h-6.83c-.8,0-1.44-.64-1.44-1.44v-6.85c0-.8,.64-1.44,1.44-1.44h6.83c.8,0,1.44,.64,1.44,1.44v6.85c0,.8-.64,1.44-1.44,1.44Zm0,13.05h-6.83c-.8,0-1.44-.64-1.44-1.44v-6.85c0-.8,.64-1.44,1.44-1.44h6.83c.8,0,1.44,.64,1.44,1.44v6.85c0,.8-.64,1.44-1.44,1.44Zm-.42-14.93h-5.98v-5.98h5.98v5.98Zm0,13.07h-5.98v-5.98h5.98v5.98ZM37.21,9.43c0,.73-.6,1.33-1.33,1.33s-1.33-.6-1.33-1.33,.6-1.33,1.33-1.33,1.33,.6,1.33,1.33Zm-13.66,18.74c-.27,0-.55-.1-.77-.29l-3.24-2.88c-.48-.42-.52-1.15-.1-1.63,.42-.48,1.15-.52,1.63-.1l2.43,2.16,4.81-4.73c.45-.45,1.19-.44,1.63,.01,.45,.45,.44,1.19-.01,1.63l-5.58,5.49c-.22,.22-.52,.33-.81,.33Zm27.6-4.98h-16.66c-.51,0-.92-.41-.92-.92s.41-.92,.92-.92h16.66c.51,0,.92,.41,.92,.92s-.41,.92-.92,.92Zm0,4.12h-16.66c-.51,0-.92-.41-.92-.92s.41-.92,.92-.92h16.66c.51,0,.92,.41,.92,.92s-.41,.92-.92,.92Zm0,10.31h-16.66c-.51,0-.92-.41-.92-.92s.41-.92,.92-.92h16.66c.51,0,.92,.41,.92,.92s-.41,.92-.92,.92Zm0,4.12h-16.66c-.51,0-.92-.41-.92-.92s.41-.92,.92-.92h16.66c.51,0,.92,.41,.92,.92s-.41,.92-.92,.92Zm0,8.85h-16.66c-.51,0-.92-.41-.92-.92s.41-.92,.92-.92h16.66c.51,0,.92,.41,.92,.92s-.41,.92-.92,.92Zm0,4.12h-16.66c-.51,0-.92-.41-.92-.92s.41-.92,.92-.92h16.66c.51,0,.92,.41,.92,.92s-.41,.92-.92,.92Z"/></g></svg>