<?xml version="1.0" encoding="UTF-8"?><svg xmlns="http://www.w3.org/2000/svg" viewBox="0 0 72 72"><defs><style>.cls-1{fill:#fff;}.cls-2{fill:#1a3763;}</style></defs><g id="Layer_2"><circle class="cls-2" cx="36" cy="36" r="36"/></g><g id="Layer_1"><g><g><path class="cls-1" d="M33.97,14.81h0c0,.32,.11,.57,.34,.75,.22,.18,.36,.35,.81,.5v-2.36c-.9,.08-1.14,.45-1.14,1.11Z"/><path class="cls-1" d="M36.4,19.63v2.3c.98-.04,1.28-.38,1.28-1.02h0c0-.33-.13-.59-.4-.78-.27-.19-.43-.36-.87-.51Z"/><path class="cls-1" d="M35.8,4.32c-7.46,0-13.5,6.05-13.5,13.52s6.04,13.52,13.5,13.52,13.5-6.05,13.5-13.52-6.04-13.52-13.5-13.52Zm4.88,18.15c-.26,.51-.6,.93-1.03,1.26-.43,.33-.92,.57-1.48,.74-.56,.17-1.14,.26-1.76,.29v2.23h-1.34v-2.25c-.88-.08-1.76-.26-2.62-.55-.86-.29-1.64-.66-2.33-1.1l1.38-2.74c.05,.06,.19,.17,.42,.32,.23,.15,.52,.3,.86,.47s.74,.32,1.17,.47c.43,.15,.68,.25,1.14,.3v-2.55l-.71-.27c-.63-.19-1.17-.4-1.63-.62-.46-.22-.84-.48-1.15-.78-.31-.29-.53-.63-.68-1.02-.15-.38-.22-.83-.22-1.34,0-.67,.12-1.26,.35-1.78,.23-.52,.54-.96,.93-1.33,.39-.37,.85-.66,1.38-.87,.53-.21,1.1-.35,1.72-.41v-1.94h1.34v1.94c.84,.08,1.62,.26,2.34,.56,.72,.29,1.34,.59,1.88,.9l-1.36,2.61c-.04-.05-.15-.13-.35-.25-.19-.12-.43-.24-.72-.37-.29-.13-.61-.26-.96-.38-.35-.12-.46-.21-.82-.26v2.61l.37,.15c.65,.18,1.24,.37,1.77,.59,.52,.21,.97,.47,1.34,.79,.37,.31,.66,.69,.85,1.14,.2,.45,.3,.99,.3,1.61,0,.73-.13,1.35-.38,1.86Z"/></g><path class="cls-1" d="M15.79,45.99c.45,0,.81-.36,.82-.8v-7.09h18.55v7.09c0,.46,.37,.82,.82,.82s.82-.37,.82-.82v-7.09h18.55v7.09c0,.46,.37,.82,.82,.82s.82-.37,.82-.82v-7.93c0-.22-.09-.43-.24-.58-.15-.15-.36-.24-.58-.24h-19.37v-6.54c0-.45-.37-.82-.82-.82s-.82,.37-.82,.82v6.54H15.79c-.44,.02-.79,.38-.79,.82v7.93c0,.44,.36,.79,.79,.8h0Z"/><path class="cls-1" d="M20.63,47.17c-1.28-1.28-3.02-1.99-4.84-1.99-1.81,0-3.54,.73-4.81,2.01-1.27,1.28-1.99,3.02-1.98,4.82,0,1.81,.73,3.54,2.01,4.81,1.28,1.28,3.01,1.99,4.82,1.99,1.81,0,3.54-.72,4.82-2,1.28-1.28,1.99-3.01,1.99-4.82,0-1.81-.72-3.55-2.01-4.83Zm-4.89,9.69c-2.71,0-4.91-2.2-4.91-4.91s2.2-4.91,4.91-4.91,4.91,2.2,4.91,4.91-2.2,4.91-4.91,4.91Z"/><path class="cls-1" d="M40.81,47.18c-1.28-1.28-3.01-2-4.82-2h0c-1.81,0-3.54,.72-4.82,2s-2,3.01-2,4.82,.72,3.54,2,4.82,3.01,2,4.82,2,3.54-.72,4.82-2,2-3.01,2-4.82c0-1.81-.72-3.54-2-4.82Zm-4.88,9.68c-2.71,0-4.91-2.2-4.91-4.91s2.2-4.91,4.91-4.91,4.91,2.2,4.91,4.91-2.2,4.91-4.91,4.91Z"/><path class="cls-1" d="M61,47.18c-1.28-1.28-3.01-2-4.82-2s-3.54,.72-4.82,2c-1.28,1.28-2,3.01-2,4.82s.72,3.54,2,4.82c1.28,1.28,3.01,2,4.82,2s3.54-.72,4.82-2,2-3.01,2-4.82-.72-3.54-2-4.82Zm-4.9,9.69c-2.71,0-4.91-2.2-4.91-4.91s2.2-4.91,4.91-4.91,4.91,2.2,4.91,4.91-2.2,4.91-4.91,4.91Z"/><circle class="cls-1" cx="15.72" cy="51.88" r="3.52"/><circle class="cls-1" cx="35.99" cy="51.88" r="3.52"/><circle class="cls-1" cx="56.26" cy="51.88" r="3.52"/></g></g></svg>