<?xml version="1.0" encoding="UTF-8" standalone="no"?>
<!DOCTYPE svg PUBLIC "-//W3C//DTD SVG 1.1//EN" "http://www.w3.org/Graphics/SVG/1.1/DTD/svg11.dtd">
<svg xmlns="http://www.w3.org/2000/svg" version="1.1" viewBox="0 0 116 115">
<path fill="#003e80" d="M 29.31,0.00 Q 34.94,0.00 40.56,0.00 Q 63.40,0.41 85.95,0.75 A 0.61,0.60 8.3 0 1 86.53,1.52 L 82.87,14.36 A 1.20,0.33 69.4 0 0 82.94,15.11 L 83.04,15.50 L 82.26,16.80 A 1.43,0.86 -1.3 0 1 81.45,17.31 Q 59.85,22.96 40.56,31.06 Q 24.69,37.73 9.06,47.56 Q 8.24,48.08 6.75,47.54 Q 3.45,32.60 0.00,17.69 Q 0.00,17.56 0.00,17.44 Q 0.20,17.36 0.38,17.25 Q 0.81,17.00 1.18,16.99 L 32.87,16.24 A 0.68,0.67 81.3 0 0 33.50,15.37 Q 31.38,7.99 29.40,1.47 Q 29.38,1.39 29.15,0.95 Q 28.91,0.47 29.31,0.00 Z"/>
<path fill="#15853e" d="M 83.04,15.50 Q 85.27,16.65 87.75,16.71 Q 91.22,16.46 89.22,17.72 Q 88.82,17.98 88.23,18.17 Q 45.53,32.37 10.19,60.19 Q 10.03,60.31 9.54,60.25 L 6.75,47.54 Q 8.24,48.08 9.06,47.56 Q 24.69,37.73 40.56,31.06 Q 59.85,22.96 81.45,17.31 A 1.43,0.86 -1.3 0 0 82.26,16.80 L 83.04,15.50 Z"/>
<path fill="#15853e" d="M 108.75,16.54 Q 108.95,17.65 107.50,18.25 Q 91.04,25.05 73.08,36.34 Q 59.13,45.11 47.24,56.36 Q 39.58,63.60 33.93,71.23 Q 26.50,81.27 20.56,93.31 Q 18.89,96.70 18.76,99.64 A 0.95,0.74 75.8 0 1 18.49,100.26 L 18.21,100.50 L 13.75,79.79 L 14.23,79.87 A 0.86,0.82 -64.5 0 0 14.99,79.58 Q 42.98,46.64 81.69,26.19 Q 90.91,21.31 99.58,18.23 Q 100.37,17.95 100.77,17.52 Q 101.99,16.19 98.75,16.46 L 108.75,16.54 Z"/>
<path fill="#003e80" d="M 115.25,19.04 Q 113.81,19.30 112.55,20.05 Q 95.22,30.42 80.81,44.56 Q 60.31,64.67 49.56,91.31 Q 45.47,101.44 43.25,114.04 L 21.68,113.82 A 0.65,0.64 -6.1 0 1 21.05,113.32 L 18.21,100.50 L 18.49,100.26 A 0.95,0.74 75.8 0 0 18.76,99.64 Q 18.89,96.70 20.56,93.31 Q 26.50,81.27 33.93,71.23 Q 39.58,63.60 47.24,56.36 Q 59.13,45.11 73.08,36.34 Q 91.04,25.05 107.50,18.25 Q 108.95,17.65 108.75,16.54 L 114.94,16.35 A 0.70,0.61 -7.5 0 1 115.61,16.79 Q 115.91,17.93 115.25,19.04 Z"/>
<path fill="#003e80" d="M 98.75,16.46 Q 101.99,16.19 100.77,17.52 Q 100.37,17.95 99.58,18.23 Q 90.91,21.31 81.69,26.19 Q 42.98,46.64 14.99,79.58 A 0.86,0.82 -64.5 0 1 14.23,79.87 L 13.75,79.79 L 9.54,60.25 Q 10.03,60.31 10.19,60.19 Q 45.53,32.37 88.23,18.17 Q 88.82,17.98 89.22,17.72 Q 91.22,16.46 87.75,16.71 L 98.75,16.46 Z"/>
<path fill="#15853e" d="M 115.25,19.04 Q 105.45,66.12 95.09,113.09 Q 95.08,113.16 95.02,113.93 Q 94.98,114.56 94.44,115.00 Q 92.31,115.00 90.19,115.00 Q 66.72,114.54 43.25,114.04 Q 45.47,101.44 49.56,91.31 Q 60.31,64.67 80.81,44.56 Q 95.22,30.42 112.55,20.05 Q 113.81,19.30 115.25,19.04 ZM 74.4106,103.1799 A 14.50,14.00 89.8 0 0 88.3599,88.6311 A 14.50,14.00 89.8 0 0 74.3094,74.1801 A 14.50,14.00 89.8 0 0 60.3601,88.7289 A 14.50,14.00 89.8 0 0 74.4106,103.1799 Z"/>
<ellipse fill="#003e80" cx="0.00" cy="0.00" transform="translate(74.36,88.68) rotate(89.8)" rx="14.50" ry="14.00"/>
</svg>
