<?xml version="1.0" encoding="UTF-8"?>
<svg id="Layer_2" data-name="Layer 2" xmlns="http://www.w3.org/2000/svg" viewBox="0 0 64.97 71">
  <defs>
    <style>
      .cls-1 {
        fill: #243f80;
      }

      .cls-1, .cls-2 {
        stroke-width: 0px;
      }

      .cls-2 {
        fill: #008945;
      }
    </style>
  </defs>
  <g id="Layer_1-2" data-name="Layer 1">
    <g>
      <g>
        <path class="cls-2" d="m64.97,11.4l-.02.1-11.21,59.51H11.23c-.41-2.18-.82-4.37-1.24-6.55-.63-3.4-1.27-6.79-1.91-10.19-.39-2.05-.77-4.1-1.16-6.15l-.02-.07c-.93-4.95-1.87-9.91-2.8-14.87-.03-.17-.06-.32-.09-.48,5.02-5.27,10.12-8.2,16.18-11.65,12.91-7.37,21.7-7.87,28.12-9.82l-.03.18h16.68Z"/>
        <path class="cls-1" d="m20.19,21.04c12.92-7.37,21.7-7.87,28.12-9.82l1.73-11.22H14.93l1.76,11.4H0c1.34,7.1,2.67,14.19,4.01,21.29,5.02-5.27,10.13-8.19,16.18-11.65Z"/>
      </g>
      <path class="cls-1" d="m57.32,11.4c-8.76,2.95-18.29,8.3-27.23,15.75-10.16,8.47-17.77,18.14-22.05,27.2l-2.54-14.15c5.62-6.78,13.39-13.41,22.72-18.96,7.7-4.58,15.53-7.87,22.89-9.84h6.22Z"/>
      <path class="cls-1" d="m64.97,11.4l-.02.1c-14.16,3.79-28.96,17.74-37.85,37.5-3.33,7.4-5.5,14.87-6.56,22.01h-9.32c-.41-2.18-.82-4.37-1.24-6.55,2.92-10.33,9.07-21.27,18.08-31.02,10.48-11.33,22.87-18.93,34.43-22.04h2.48Z"/>
      <ellipse class="cls-1" cx="42.14" cy="56.1" rx="7.9" ry="7.89"/>
    </g>
  </g>
</svg>