<?xml version="1.0" encoding="UTF-8"?>
<!DOCTYPE svg PUBLIC "-//W3C//DTD SVG 1.1//EN" "http://www.w3.org/Graphics/SVG/1.1/DTD/svg11.dtd">
<svg xmlns="http://www.w3.org/2000/svg" version="1.1" width="1280px" height="684px" style="shape-rendering:geometricPrecision; text-rendering:geometricPrecision; image-rendering:optimizeQuality; fill-rule:evenodd; clip-rule:evenodd" xmlns:xlink="http://www.w3.org/1999/xlink">
<g><path style="opacity:1" fill="#15346a" d="M 143.5,-0.5 C 519.5,-0.5 895.5,-0.5 1271.5,-0.5C 1274.43,0.638994 1277.1,2.30566 1279.5,4.5C 1279.5,6.83333 1279.5,9.16667 1279.5,11.5C 1233.46,161.3 1187.79,311.3 1142.5,461.5C 1139.09,463.473 1135.43,464.973 1131.5,466C 1084.17,466.167 1036.83,466.333 989.5,466.5C 941.829,466.5 894.495,465.833 847.5,464.5C 852.479,443.915 857.146,423.248 861.5,402.5C 861.333,401.5 861.167,400.5 861,399.5C 853.697,394.03 846.863,388.03 840.5,381.5C 841.912,380.194 843.579,379.36 845.5,379C 853.069,378.366 860.402,376.699 867.5,374C 868.46,372.581 869.293,371.081 870,369.5C 878.511,333.13 886.844,296.796 895,260.5C 864.26,234.215 833.426,208.048 802.5,182C 800.167,181.333 797.833,181.333 795.5,182C 785.827,184.234 776.16,186.401 766.5,188.5C 768.809,178.938 770.309,169.271 771,159.5C 740.777,133.643 710.277,108.143 679.5,83C 676.167,82.3333 672.833,82.3333 669.5,83C 632.846,91.6646 596.179,100.331 559.5,109C 557.951,110.214 556.785,111.714 556,113.5C 553.643,124.262 550.976,134.929 548,145.5C 539.167,138 530.333,130.5 521.5,123C 520.5,122.833 519.5,122.667 518.5,122.5C 479.064,131.859 439.73,141.526 400.5,151.5C 391.11,188.226 382.11,225.059 373.5,262C 373.858,264.032 374.692,265.866 376,267.5C 382.3,272.725 388.467,278.058 394.5,283.5C 385.49,285.602 376.49,287.769 367.5,290C 357.255,326.65 348.255,363.65 340.5,401C 340.408,403.814 341.408,406.147 343.5,408C 366.665,427.001 389.665,446.168 412.5,465.5C 291.833,466.167 171.167,466.833 50.5,467.5C 50.5,468.167 50.1667,468.5 49.5,468.5C 37.1622,468.667 24.8288,468.5 12.5,468C 7.66526,467.226 3.33193,465.392 -0.5,462.5C -0.5,459.833 -0.5,457.167 -0.5,454.5C 45.3975,304.632 91.2308,154.632 137,4.5C 138.965,2.44965 141.132,0.782988 143.5,-0.5 Z"/></g>
<g><path style="opacity:1" fill="#f9f9fb" d="M 847.5,464.5 C 844.169,466.298 840.502,466.964 836.5,466.5C 836.5,466.167 836.5,465.833 836.5,465.5C 840.517,446.765 844.85,428.099 849.5,409.5C 815.522,417.327 781.522,425.161 747.5,433C 744.034,443.626 741.367,454.46 739.5,465.5C 735.438,467.176 731.771,466.842 728.5,464.5C 730.998,453.185 733.165,441.852 735,430.5C 727.48,424.403 720.147,418.07 713,411.5C 712.727,413.329 711.893,414.829 710.5,416C 701.229,417.733 692.229,420.233 683.5,423.5C 690.482,429.314 697.315,435.314 704,441.5C 704.667,443.833 704.667,446.167 704,448.5C 702.358,453.402 701.191,458.402 700.5,463.5C 699.596,464.209 699.263,465.209 699.5,466.5C 695.958,466.813 692.625,466.479 689.5,465.5C 689.965,461.044 690.965,456.711 692.5,452.5C 691.333,452.167 690.167,451.833 689,451.5C 669.412,455.864 649.912,460.531 630.5,465.5C 629.833,465.5 629.167,465.5 628.5,465.5C 609.546,466.475 590.546,466.808 571.5,466.5C 571.5,465.833 571.167,465.5 570.5,465.5C 546.086,445.531 521.92,425.198 498,404.5C 492.534,424.364 487.701,444.364 483.5,464.5C 482.662,464.842 482.328,465.508 482.5,466.5C 476.824,466.666 471.157,466.499 465.5,466C 466.416,465.722 467.082,465.222 467.5,464.5C 471.057,464.503 473.224,462.837 474,459.5C 478.861,437.055 484.195,414.721 490,392.5C 491.214,390.951 492.714,389.785 494.5,389C 502.513,387.163 510.513,385.33 518.5,383.5C 511.833,377.833 505.167,372.167 498.5,366.5C 487.549,368.65 476.716,371.316 466,374.5C 458.358,404.735 451.191,435.068 444.5,465.5C 440.438,467.176 436.771,466.842 433.5,464.5C 439.032,438.372 445.198,412.372 452,386.5C 453.168,381.518 453.835,376.518 454,371.5C 427.647,348.979 401.147,326.645 374.5,304.5C 366.94,336.197 359.273,367.863 351.5,399.5C 377.531,421.508 403.531,443.508 429.5,465.5C 424.36,466.488 419.026,466.821 413.5,466.5C 413.5,465.833 413.167,465.5 412.5,465.5C 389.665,446.168 366.665,427.001 343.5,408C 341.408,406.147 340.408,403.814 340.5,401C 348.255,363.65 357.255,326.65 367.5,290C 376.49,287.769 385.49,285.602 394.5,283.5C 388.467,278.058 382.3,272.725 376,267.5C 374.692,265.866 373.858,264.032 373.5,262C 382.11,225.059 391.11,188.226 400.5,151.5C 439.73,141.526 479.064,131.859 518.5,122.5C 519.5,122.667 520.5,122.833 521.5,123C 530.333,130.5 539.167,138 548,145.5C 550.976,134.929 553.643,124.262 556,113.5C 556.785,111.714 557.951,110.214 559.5,109C 596.179,100.331 632.846,91.6646 669.5,83C 672.833,82.3333 676.167,82.3333 679.5,83C 710.277,108.143 740.777,133.643 771,159.5C 770.309,169.271 768.809,178.938 766.5,188.5C 776.16,186.401 785.827,184.234 795.5,182C 797.833,181.333 800.167,181.333 802.5,182C 833.426,208.048 864.26,234.215 895,260.5C 886.844,296.796 878.511,333.13 870,369.5C 869.293,371.081 868.46,372.581 867.5,374C 860.402,376.699 853.069,378.366 845.5,379C 843.579,379.36 841.912,380.194 840.5,381.5C 846.863,388.03 853.697,394.03 861,399.5C 861.167,400.5 861.333,401.5 861.5,402.5C 857.146,423.248 852.479,443.915 847.5,464.5 Z"/></g>
<g><path style="opacity:1" fill="#18356c" d="M 563.5,123.5 C 591.405,145.732 618.739,168.732 645.5,192.5C 642.533,202.703 640.033,213.036 638,223.5C 628.35,226.537 618.517,228.871 608.5,230.5C 610.449,221.131 612.282,211.797 614,202.5C 595.333,186.5 576.667,170.5 558,154.5C 557.333,152.167 557.333,149.833 558,147.5C 560.467,139.631 562.301,131.631 563.5,123.5 Z"/></g>
<g><path style="opacity:1" fill="#16346b" d="M 513.5,134.5 C 515.199,134.34 516.866,134.506 518.5,135C 544.5,157 570.5,179 596.5,201C 564.465,208.54 532.465,216.207 500.5,224C 498.167,224.667 495.833,224.667 493.5,224C 467.661,202.325 441.995,180.491 416.5,158.5C 448.899,150.385 481.232,142.385 513.5,134.5 Z"/></g>
<g><path style="opacity:1" fill="#16346b" d="M 407.5,165.5 C 434.919,187.412 461.919,209.912 488.5,233C 481.101,264.552 473.435,296.052 465.5,327.5C 438.562,306.066 412.062,284.066 386,261.5C 386.676,253.446 388.009,245.446 390,237.5C 395.728,213.457 401.561,189.457 407.5,165.5 Z"/></g>
<g><path style="opacity:1" fill="#1a366d" d="M 755.5,170.5 C 756.978,170.238 758.311,170.571 759.5,171.5C 756.886,178.622 755.219,185.955 754.5,193.5C 734.097,197.548 713.764,202.048 693.5,207C 689.284,207.72 685.284,209.053 681.5,211C 678.082,222.841 674.749,234.675 671.5,246.5C 664.241,240.619 657.074,234.619 650,228.5C 650.888,216.847 653.388,205.513 657.5,194.5C 690.33,186.703 722.996,178.703 755.5,170.5 Z"/></g>
<g><path style="opacity:1" fill="#17356c" d="M 796.5,193.5 C 799.14,193.954 801.473,195.121 803.5,197C 828.167,218 852.833,239 877.5,260C 847.511,267.332 817.511,274.665 787.5,282C 783.221,283.244 778.888,283.577 774.5,283C 748.872,261.708 723.539,240.041 698.5,218C 700.635,216.619 702.968,215.619 705.5,215C 736.03,208.089 766.363,200.922 796.5,193.5 Z"/></g>
<g><path style="opacity:1" fill="#19366c" d="M 599.5,211.5 C 600.586,211.62 601.253,212.287 601.5,213.5C 599.517,220.1 597.85,226.767 596.5,233.5C 573.35,239.3 550.017,244.8 526.5,250C 525.5,250.833 524.5,251.667 523.5,252.5C 517.677,276.125 512.01,299.792 506.5,323.5C 496.363,325.535 486.363,327.869 476.5,330.5C 484.088,298.649 491.754,266.816 499.5,235C 532.892,226.832 566.225,218.999 599.5,211.5 Z"/></g>
<g><path style="opacity:1" fill="#18356c" d="M 688.5,224.5 C 715.92,246.413 742.92,268.913 769.5,292C 761.742,323.532 753.909,355.032 746,386.5C 737.95,380.274 730.45,373.607 723.5,366.5C 728.355,345.089 733.188,323.756 738,302.5C 719.333,286.5 700.667,270.5 682,254.5C 683.203,244.346 685.37,234.346 688.5,224.5 Z"/></g>
<g><path style="opacity:1" fill="#16346b" d="M 530.5,265.5 C 557.733,287.222 584.566,309.555 611,332.5C 604.302,364.294 596.802,395.96 588.5,427.5C 561.562,406.066 535.062,384.066 509,361.5C 508.886,358.167 509.219,354.834 510,351.5C 516.837,322.82 523.67,294.154 530.5,265.5 Z"/></g>
<g><path style="opacity:1" fill="#16346b" d="M 878.5,270.5 C 879.833,270.5 881.167,270.5 882.5,270.5C 875.312,302.467 867.646,334.3 859.5,366C 826.08,373.514 792.747,381.347 759.5,389.5C 758.833,389.167 758.167,388.833 757.5,388.5C 764.892,357.149 772.392,325.815 780,294.5C 788.893,292.428 797.726,289.928 806.5,287C 830.819,282.307 854.819,276.807 878.5,270.5 Z"/></g>
<g><path style="opacity:1" fill="#1b376d" d="M 401.5,291.5 C 403.199,291.34 404.866,291.506 406.5,292C 425.981,308.904 445.648,325.571 465.5,342C 471.15,341.698 476.816,341.031 482.5,340C 489.32,337.04 496.32,335.54 503.5,335.5C 500.892,341.931 499.226,348.597 498.5,355.5C 485.942,358.64 473.275,361.14 460.5,363C 435,341.5 409.5,320 384,298.5C 383.544,297.256 384.044,296.423 385.5,296C 391.038,294.759 396.371,293.259 401.5,291.5 Z"/></g>
<g><path style="opacity:1" fill="#16346b" d="M 433.5,464.5 C 432.528,466.493 431.195,466.826 429.5,465.5C 403.531,443.508 377.531,421.508 351.5,399.5C 359.273,367.863 366.94,336.197 374.5,304.5C 401.147,326.645 427.647,348.979 454,371.5C 453.835,376.518 453.168,381.518 452,386.5C 445.198,412.372 439.032,438.372 433.5,464.5 Z"/></g>
<g><path style="opacity:1" fill="#17356b" d="M 724.5,311.5 C 725.097,311.735 725.43,312.235 725.5,313C 718.375,344.332 710.708,375.499 702.5,406.5C 668.956,414.261 635.456,422.261 602,430.5C 601.5,430.167 601,429.833 600.5,429.5C 608.22,398.011 615.887,366.511 623.5,335C 657.183,326.66 690.85,318.827 724.5,311.5 Z"/></g>
<g><path style="opacity:1" fill="#18356c" d="M 467.5,464.5 C 464.572,464.565 461.905,465.232 459.5,466.5C 454.305,466.821 449.305,466.487 444.5,465.5C 451.191,435.068 458.358,404.735 466,374.5C 476.716,371.316 487.549,368.65 498.5,366.5C 505.167,372.167 511.833,377.833 518.5,383.5C 510.513,385.33 502.513,387.163 494.5,389C 492.714,389.785 491.214,390.951 490,392.5C 484.195,414.721 478.861,437.055 474,459.5C 473.224,462.837 471.057,464.503 467.5,464.5 Z"/></g>
<g><path style="opacity:1" fill="#1a366d" d="M 719.5,380.5 C 720.922,380.709 722.255,381.209 723.5,382C 730.982,388.572 738.649,394.905 746.5,401C 749.5,401.667 752.5,401.667 755.5,401C 762.469,399.454 769.469,398.12 776.5,397C 792.311,392.42 808.311,388.586 824.5,385.5C 825.833,385.667 827.167,385.833 828.5,386C 833.687,390.688 839.02,395.188 844.5,399.5C 811.558,407.318 778.558,414.985 745.5,422.5C 743.701,422.423 742.034,421.923 740.5,421C 732.686,413.93 724.686,407.096 716.5,400.5C 716.167,399.833 715.833,399.167 715.5,398.5C 717.156,392.546 718.489,386.546 719.5,380.5 Z"/></g>
<g><path style="opacity:1" fill="#1a376d" d="M 523.5,392.5 C 525.857,392.337 528.19,392.503 530.5,393C 550.167,409.333 569.833,425.667 589.5,442C 593.527,442.331 597.527,441.998 601.5,441C 623.722,435.389 646.055,430.222 668.5,425.5C 674.908,429.732 680.908,434.565 686.5,440C 653.46,448.385 620.293,456.551 587,464.5C 560.365,442.702 533.865,420.702 507.5,398.5C 512.814,396.182 518.147,394.182 523.5,392.5 Z"/></g>
<g><path style="opacity:1" fill="#17356b" d="M 570.5,465.5 C 556.171,466.167 541.671,466.5 527,466.5C 512.151,466.499 497.651,465.833 483.5,464.5C 487.701,444.364 492.534,424.364 498,404.5C 521.92,425.198 546.086,445.531 570.5,465.5 Z"/></g>
<g><path style="opacity:1" fill="#17356c" d="M 836.5,465.5 C 804.24,466.492 771.907,466.826 739.5,466.5C 739.5,466.167 739.5,465.833 739.5,465.5C 741.367,454.46 744.034,443.626 747.5,433C 781.522,425.161 815.522,417.327 849.5,409.5C 844.85,428.099 840.517,446.765 836.5,465.5 Z"/></g>
<g><path style="opacity:1" fill="#19366c" d="M 728.5,464.5 C 719.43,466.431 710.097,467.097 700.5,466.5C 700.5,465.5 700.5,464.5 700.5,463.5C 701.191,458.402 702.358,453.402 704,448.5C 704.667,446.167 704.667,443.833 704,441.5C 697.315,435.314 690.482,429.314 683.5,423.5C 692.229,420.233 701.229,417.733 710.5,416C 711.893,414.829 712.727,413.329 713,411.5C 720.147,418.07 727.48,424.403 735,430.5C 733.165,441.852 730.998,453.185 728.5,464.5 Z"/></g>
<g><path style="opacity:1" fill="#203a70" d="M 689.5,465.5 C 688.833,465.5 688.5,465.833 688.5,466.5C 668.993,466.83 649.659,466.497 630.5,465.5C 649.912,460.531 669.412,455.864 689,451.5C 690.167,451.833 691.333,452.167 692.5,452.5C 690.965,456.711 689.965,461.044 689.5,465.5 Z"/></g>
<g><path style="opacity:1" fill="#3099cf" d="M 1142.5,461.5 C 1124.24,519.785 1106.07,578.118 1088,636.5C 1085.19,639.603 1081.69,641.27 1077.5,641.5C 721.617,640.169 365.95,640.169 10.5,641.5C 6.19883,641.182 2.53217,639.515 -0.5,636.5C -0.5,634.167 -0.5,631.833 -0.5,629.5C 16.5369,576.05 33.2036,522.383 49.5,468.5C 50.1667,468.5 50.5,468.167 50.5,467.5C 171.668,467.833 292.668,467.5 413.5,466.5C 419.026,466.821 424.36,466.488 429.5,465.5C 431.195,466.826 432.528,466.493 433.5,464.5C 436.771,466.842 440.438,467.176 444.5,465.5C 449.305,466.487 454.305,466.821 459.5,466.5C 467.167,467.833 474.833,467.833 482.5,466.5C 482.328,465.508 482.662,464.842 483.5,464.5C 497.651,465.833 512.151,466.499 527,466.5C 541.671,466.5 556.171,466.167 570.5,465.5C 571.167,465.5 571.5,465.833 571.5,466.5C 589.993,467.497 608.659,467.83 627.5,467.5C 648.007,467.83 668.34,467.497 688.5,466.5C 688.5,465.833 688.833,465.5 689.5,465.5C 692.625,466.479 695.958,466.813 699.5,466.5C 699.263,465.209 699.596,464.209 700.5,463.5C 700.5,464.5 700.5,465.5 700.5,466.5C 710.097,467.097 719.43,466.431 728.5,464.5C 731.771,466.842 735.438,467.176 739.5,465.5C 739.5,465.833 739.5,466.167 739.5,466.5C 771.833,467.833 804.167,467.833 836.5,466.5C 840.502,466.964 844.169,466.298 847.5,464.5C 894.495,465.833 941.829,466.5 989.5,466.5C 1036.83,466.333 1084.17,466.167 1131.5,466C 1135.43,464.973 1139.09,463.473 1142.5,461.5 Z"/></g>
<g><path style="opacity:1" fill="#246aa0" d="M 412.5,465.5 C 413.167,465.5 413.5,465.833 413.5,466.5C 292.668,467.5 171.668,467.833 50.5,467.5C 171.167,466.833 291.833,466.167 412.5,465.5 Z"/></g>
<g><path style="opacity:1" fill="#94bdd9" d="M 467.5,464.5 C 467.082,465.222 466.416,465.722 465.5,466C 471.157,466.499 476.824,466.666 482.5,466.5C 474.833,467.833 467.167,467.833 459.5,466.5C 461.905,465.232 464.572,464.565 467.5,464.5 Z"/></g>
<g><path style="opacity:1" fill="#89bddc" d="M 628.5,465.5 C 628.167,466.167 627.833,466.833 627.5,467.5C 608.659,467.83 589.993,467.497 571.5,466.5C 590.546,466.808 609.546,466.475 628.5,465.5 Z"/></g>
<g><path style="opacity:1" fill="#266aa1" d="M 628.5,465.5 C 629.167,465.5 629.833,465.5 630.5,465.5C 649.659,466.497 668.993,466.83 688.5,466.5C 668.34,467.497 648.007,467.83 627.5,467.5C 627.833,466.833 628.167,466.167 628.5,465.5 Z"/></g>
<g><path style="opacity:1" fill="#256aa1" d="M 836.5,465.5 C 836.5,465.833 836.5,466.167 836.5,466.5C 804.167,467.833 771.833,467.833 739.5,466.5C 771.907,466.826 804.24,466.492 836.5,465.5 Z"/></g>
<g><path style="opacity:1" fill="#030608" d="M 339.5,494.5 C 346.451,493.428 352.285,495.428 357,500.5C 360.284,509.318 357.451,515.151 348.5,518C 336.86,520.02 331.027,515.186 331,503.5C 332.688,499.315 335.521,496.315 339.5,494.5 Z"/></g>
<g><path style="opacity:1" fill="#020406" d="M 754.5,494.5 C 769.524,493.99 774.69,500.657 770,514.5C 761.968,520.15 754.302,519.817 747,513.5C 743.422,504.668 745.922,498.335 754.5,494.5 Z"/></g>
<g><path style="opacity:1" fill="#000000" d="M 785.5,502.5 C 792.833,502.5 800.167,502.5 807.5,502.5C 807.5,531.833 807.5,561.167 807.5,590.5C 800.167,590.5 792.833,590.5 785.5,590.5C 785.5,561.167 785.5,531.833 785.5,502.5 Z"/></g>
<g><path style="opacity:1" fill="#010203" d="M 868.5,502.5 C 875.833,502.5 883.167,502.5 890.5,502.5C 890.5,531.833 890.5,561.167 890.5,590.5C 883.5,590.5 876.5,590.5 869.5,590.5C 869.662,588.473 869.495,586.473 869,584.5C 863.893,589.482 857.727,591.815 850.5,591.5C 830.197,589.695 819.531,578.528 818.5,558C 819.814,537.856 830.481,526.689 850.5,524.5C 857.19,524.784 863.023,527.117 868,531.5C 868.5,521.839 868.666,512.172 868.5,502.5 Z"/></g>
<g><path style="opacity:1" fill="#1f4256" d="M 868.5,502.5 C 875.982,501.508 883.648,501.175 891.5,501.5C 891.831,531.338 891.498,561.005 890.5,590.5C 890.5,561.167 890.5,531.833 890.5,502.5C 883.167,502.5 875.833,502.5 868.5,502.5 Z"/></g>
<g><path style="opacity:1" fill="#0b202b" d="M 167.5,509.5 C 150.187,508.587 132.854,508.254 115.5,508.5C 115.5,535.833 115.5,563.167 115.5,590.5C 114.502,563.005 114.169,535.338 114.5,507.5C 130.503,507.333 146.503,507.5 162.5,508C 164.382,508.198 166.048,508.698 167.5,509.5 Z"/></g>
<g><path style="opacity:1" fill="#000102" d="M 167.5,509.5 C 187.297,516.092 194.13,529.425 188,549.5C 182.374,560.772 173.207,566.939 160.5,568C 153.174,568.5 145.841,568.666 138.5,568.5C 138.5,575.833 138.5,583.167 138.5,590.5C 130.833,590.5 123.167,590.5 115.5,590.5C 115.5,563.167 115.5,535.833 115.5,508.5C 132.854,508.254 150.187,508.587 167.5,509.5 Z"/></g>
<g><path style="opacity:1" fill="#010102" d="M 637.5,588.5 C 616.564,590.358 595.564,591.025 574.5,590.5C 574.5,562.833 574.5,535.167 574.5,507.5C 591.837,507.333 609.17,507.5 626.5,508C 648.112,511.396 654.279,522.896 645,542.5C 643.075,543.88 641.241,545.38 639.5,547C 651.012,552.19 655.512,561.023 653,573.5C 650.497,581.321 645.33,586.321 637.5,588.5 Z"/></g>
<g><path style="opacity:1" fill="#020305" d="M 559.5,528.5 C 559.5,533.833 559.5,539.167 559.5,544.5C 554.637,544.181 549.97,544.514 545.5,545.5C 545.334,553.84 545.5,562.173 546,570.5C 549.453,575.089 553.62,575.755 558.5,572.5C 561.173,577.017 563.173,581.851 564.5,587C 563.318,588.735 561.651,589.735 559.5,590C 551.819,591.96 544.153,591.96 536.5,590C 529.007,586.503 524.507,580.67 523,572.5C 522.5,563.506 522.334,554.506 522.5,545.5C 519.5,545.5 516.5,545.5 513.5,545.5C 513.5,539.833 513.5,534.167 513.5,528.5C 516.5,528.5 519.5,528.5 522.5,528.5C 522.5,522.833 522.5,517.167 522.5,511.5C 530.167,511.5 537.833,511.5 545.5,511.5C 545.5,517.167 545.5,522.833 545.5,528.5C 550.167,528.5 554.833,528.5 559.5,528.5 Z"/></g>
<g><path style="opacity:1" fill="#3198cd" d="M 617.5,524.5 C 624.888,525.627 627.388,529.627 625,536.5C 623.512,538.16 621.679,539.16 619.5,539.5C 612.5,539.5 605.5,539.5 598.5,539.5C 598.5,534.5 598.5,529.5 598.5,524.5C 604.833,524.5 611.167,524.5 617.5,524.5 Z"/></g>
<g><path style="opacity:1" fill="#3096ca" d="M 138.5,525.5 C 145.574,525.161 152.574,525.661 159.5,527C 166.94,531.623 168.44,537.789 164,545.5C 162.421,547.041 160.587,548.208 158.5,549C 151.924,550.377 145.257,550.877 138.5,550.5C 138.5,542.167 138.5,533.833 138.5,525.5 Z"/></g>
<g><path style="opacity:1" fill="#000001" d="M 238.5,525.5 C 240.167,525.5 241.833,525.5 243.5,525.5C 243.5,531.833 243.5,538.167 243.5,544.5C 240.287,544.19 237.287,544.523 234.5,545.5C 229.353,546.473 225.853,549.473 224,554.5C 223.5,566.495 223.333,578.495 223.5,590.5C 216.167,590.5 208.833,590.5 201.5,590.5C 201.5,569.167 201.5,547.833 201.5,526.5C 208.5,526.5 215.5,526.5 222.5,526.5C 222.337,528.857 222.503,531.19 223,533.5C 227.028,528.57 232.195,525.903 238.5,525.5 Z"/></g>
<g><path style="opacity:1" fill="#1c3d4f" d="M 238.5,525.5 C 240.265,524.539 242.265,524.205 244.5,524.5C 244.5,531.5 244.5,538.5 244.5,545.5C 241.167,545.5 237.833,545.5 234.5,545.5C 237.287,544.523 240.287,544.19 243.5,544.5C 243.5,538.167 243.5,531.833 243.5,525.5C 241.833,525.5 240.167,525.5 238.5,525.5 Z"/></g>
<g><path style="opacity:1" fill="#010203" d="M 279.5,524.5 C 313.864,524.998 326.698,541.664 318,574.5C 309.79,586.271 298.457,591.938 284,591.5C 268.317,591.16 257.317,583.827 251,569.5C 246.068,545.279 255.568,530.279 279.5,524.5 Z"/></g>
<g><path style="opacity:1" fill="#010304" d="M 394.5,524.5 C 409.053,523.181 421.22,527.847 431,538.5C 435.929,546.127 437.762,554.46 436.5,563.5C 420.819,563.167 405.152,563.501 389.5,564.5C 393.788,573.183 400.788,576.35 410.5,574C 413.377,573.044 416.044,571.711 418.5,570C 419.5,569.333 420.5,569.333 421.5,570C 425.393,573.39 428.727,577.223 431.5,581.5C 426.297,586.768 419.964,589.935 412.5,591C 394.304,594.501 380.137,588.667 370,573.5C 361.715,548.737 369.881,532.404 394.5,524.5 Z"/></g>
<g><path style="opacity:1" fill="#020304" d="M 473.5,524.5 C 483.49,523.831 492.823,525.997 501.5,531C 504.372,533.537 506.872,536.37 509,539.5C 509.781,540.944 509.614,542.277 508.5,543.5C 503.341,545.912 498.341,548.579 493.5,551.5C 484.431,539.503 475.598,539.503 467,551.5C 466.333,555.833 466.333,560.167 467,564.5C 471.752,573.907 478.919,576.073 488.5,571C 490.293,569.22 491.96,567.387 493.5,565.5C 498.745,568.039 503.912,570.706 509,573.5C 508.322,578.008 506.155,581.841 502.5,585C 487.096,593.581 471.762,593.581 456.5,585C 445.198,575.764 441.031,563.93 444,549.5C 449.016,535.418 458.85,527.085 473.5,524.5 Z"/></g>
<g><path style="opacity:1" fill="#205978" d="M 617.5,524.5 C 611.167,524.5 604.833,524.5 598.5,524.5C 598.5,529.5 598.5,534.5 598.5,539.5C 605.5,539.5 612.5,539.5 619.5,539.5C 612.352,540.492 605.019,540.825 597.5,540.5C 597.5,534.833 597.5,529.167 597.5,523.5C 604.354,523.176 611.021,523.509 617.5,524.5 Z"/></g>
<g><path style="opacity:1" fill="#22516b" d="M 687.5,526.5 C 680.167,526.5 672.833,526.5 665.5,526.5C 665.5,540.167 665.5,553.833 665.5,567.5C 664.504,553.677 664.171,539.677 664.5,525.5C 672.352,525.175 680.018,525.508 687.5,526.5 Z"/></g>
<g><path style="opacity:1" fill="#010203" d="M 971.5,563.5 C 955.833,563.5 940.167,563.5 924.5,563.5C 924.263,564.791 924.596,565.791 925.5,566.5C 930.583,574.03 937.583,576.53 946.5,574C 949.749,572.027 953.083,570.694 956.5,570C 960.216,573.379 963.549,577.046 966.5,581C 961.025,587.235 954.025,590.568 945.5,591C 926.544,594.105 912.711,587.272 904,570.5C 898.053,548.894 905.553,534.06 926.5,526C 940.048,522.929 952.215,525.762 963,534.5C 970.01,542.861 972.843,552.528 971.5,563.5 Z"/></g>
<g><path style="opacity:1" fill="#2b6e91" d="M 1005.5,531.5 C 1005.22,532.289 1004.72,532.956 1004,533.5C 1003.5,531.19 1003.34,528.857 1003.5,526.5C 996.5,526.5 989.5,526.5 982.5,526.5C 982.5,547.833 982.5,569.167 982.5,590.5C 981.503,569.006 981.169,547.34 981.5,525.5C 989.167,525.5 996.833,525.5 1004.5,525.5C 1004.21,527.735 1004.54,529.735 1005.5,531.5 Z"/></g>
<g><path style="opacity:1" fill="#000001" d="M 982.5,590.5 C 982.5,569.167 982.5,547.833 982.5,526.5C 989.5,526.5 996.5,526.5 1003.5,526.5C 1003.34,528.857 1003.5,531.19 1004,533.5C 1004.72,532.956 1005.22,532.289 1005.5,531.5C 1011.19,526.494 1017.86,524.494 1025.5,525.5C 1025.5,531.833 1025.5,538.167 1025.5,544.5C 1015.8,543.096 1008.97,546.763 1005,555.5C 1004.5,567.162 1004.33,578.829 1004.5,590.5C 997.167,590.5 989.833,590.5 982.5,590.5 Z"/></g>
<g><path style="opacity:1" fill="#214a61" d="M 222.5,526.5 C 215.5,526.5 208.5,526.5 201.5,526.5C 201.5,547.833 201.5,569.167 201.5,590.5C 200.503,569.006 200.169,547.34 200.5,525.5C 208.019,525.175 215.352,525.508 222.5,526.5 Z"/></g>
<g><path style="opacity:1" fill="#000101" d="M 333.5,526.5 C 340.833,526.5 348.167,526.5 355.5,526.5C 355.5,548.5 355.5,570.5 355.5,592.5C 354.963,602.545 349.963,609.378 340.5,613C 332.119,615.085 323.786,614.919 315.5,612.5C 315.422,606.543 316.922,600.876 320,595.5C 322.841,597.504 326.007,598.004 329.5,597C 331.049,595.786 332.215,594.286 333,592.5C 333.5,570.503 333.667,548.503 333.5,526.5 Z"/></g>
<g><path style="opacity:1" fill="#245772" d="M 333.5,526.5 C 340.982,525.508 348.648,525.175 356.5,525.5C 356.831,548.006 356.497,570.34 355.5,592.5C 355.5,570.5 355.5,548.5 355.5,526.5C 348.167,526.5 340.833,526.5 333.5,526.5 Z"/></g>
<g><path style="opacity:1" fill="#000101" d="M 687.5,526.5 C 687.333,539.171 687.5,551.838 688,564.5C 691.087,572.507 696.587,574.674 704.5,571C 707.467,568.9 709.3,566.066 710,562.5C 710.5,550.505 710.667,538.505 710.5,526.5C 717.833,526.5 725.167,526.5 732.5,526.5C 732.5,547.833 732.5,569.167 732.5,590.5C 725.5,590.5 718.5,590.5 711.5,590.5C 711.662,588.473 711.495,586.473 711,584.5C 701.855,591.518 691.689,593.352 680.5,590C 671.136,585.445 666.136,577.945 665.5,567.5C 665.5,553.833 665.5,540.167 665.5,526.5C 672.833,526.5 680.167,526.5 687.5,526.5 Z"/></g>
<g><path style="opacity:1" fill="#122c3a" d="M 769.5,590.5 C 769.5,569.167 769.5,547.833 769.5,526.5C 762.5,526.5 755.5,526.5 748.5,526.5C 748.5,547.833 748.5,569.167 748.5,590.5C 747.503,569.006 747.169,547.34 747.5,525.5C 755.167,525.5 762.833,525.5 770.5,525.5C 770.831,547.34 770.497,569.006 769.5,590.5 Z"/></g>
<g><path style="opacity:1" fill="#000000" d="M 769.5,590.5 C 762.5,590.5 755.5,590.5 748.5,590.5C 748.5,569.167 748.5,547.833 748.5,526.5C 755.5,526.5 762.5,526.5 769.5,526.5C 769.5,547.833 769.5,569.167 769.5,590.5 Z"/></g>
<g><path style="opacity:1" fill="#11374a" d="M 710.5,526.5 C 717.982,525.508 725.648,525.175 733.5,525.5C 733.831,547.34 733.497,569.006 732.5,590.5C 732.5,569.167 732.5,547.833 732.5,526.5C 725.167,526.5 717.833,526.5 710.5,526.5 Z"/></g>
<g><path style="opacity:1" fill="#163242" d="M 559.5,528.5 C 560.489,533.975 560.822,539.642 560.5,545.5C 555.5,545.5 550.5,545.5 545.5,545.5C 549.97,544.514 554.637,544.181 559.5,544.5C 559.5,539.167 559.5,533.833 559.5,528.5 Z"/></g>
<g><path style="opacity:1" fill="#3096ca" d="M 414.5,549.5 C 410.724,550.825 406.557,551.491 402,551.5C 397.653,551.499 393.486,551.166 389.5,550.5C 394.216,539.992 401.55,537.826 411.5,544C 412.758,545.741 413.758,547.574 414.5,549.5 Z"/></g>
<g><path style="opacity:1" fill="#2e8ebf" d="M 933.5,540.5 C 938.182,540.338 942.515,541.505 946.5,544C 948.782,546.397 950.116,549.231 950.5,552.5C 941.833,552.5 933.167,552.5 924.5,552.5C 925.211,546.789 928.211,542.789 933.5,540.5 Z"/></g>
<g><path style="opacity:1" fill="#3097cb" d="M 281.5,542.5 C 289.007,542.001 294.507,545.001 298,551.5C 298.839,556.921 298.506,562.254 297,567.5C 289.301,575.432 281.635,575.432 274,567.5C 268.99,556.709 271.49,548.376 281.5,542.5 Z"/></g>
<g><path style="opacity:1" fill="#3097cc" d="M 851.5,542.5 C 866.771,543.648 871.937,551.648 867,566.5C 862.422,573.426 856.255,575.259 848.5,572C 841.969,566.068 840.136,558.901 843,550.5C 845.074,546.923 847.907,544.256 851.5,542.5 Z"/></g>
<g><path style="opacity:1" fill="#1a4c66" d="M 414.5,549.5 C 415.404,550.209 415.737,551.209 415.5,552.5C 406.475,552.832 397.475,552.498 388.5,551.5C 388.624,550.893 388.957,550.56 389.5,550.5C 393.486,551.166 397.653,551.499 402,551.5C 406.557,551.491 410.724,550.825 414.5,549.5 Z"/></g>
<g><path style="opacity:1" fill="#3094c8" d="M 597.5,556.5 C 606.173,556.334 614.84,556.5 623.5,557C 629.872,559.239 631.705,563.406 629,569.5C 627.421,571.041 625.587,572.208 623.5,573C 614.84,573.5 606.173,573.666 597.5,573.5C 597.5,567.833 597.5,562.167 597.5,556.5 Z"/></g>
<g><path style="opacity:1" fill="#1c5674" d="M 971.5,563.5 C 955.973,563.838 940.639,564.838 925.5,566.5C 924.596,565.791 924.263,564.791 924.5,563.5C 940.167,563.5 955.833,563.5 971.5,563.5 Z"/></g>
<g><path style="opacity:1" fill="#2b77a0" d="M 637.5,588.5 C 635.438,589.776 633.104,590.61 630.5,591C 611.662,591.829 592.995,591.662 574.5,590.5C 595.564,591.025 616.564,590.358 637.5,588.5 Z"/></g>
<g><path style="opacity:1" fill="#2b81b8" d="M 1077.5,641.5 C 1076.08,642.451 1074.41,642.784 1072.5,642.5C 726.833,641.167 381.167,641.167 35.5,642.5C 26.9832,642.826 18.6499,642.493 10.5,641.5C 365.95,640.169 721.617,640.169 1077.5,641.5 Z"/></g>
<g><path style="opacity:1" fill="#15346b" d="M 1072.5,642.5 C 1069.31,654.571 1065.81,666.571 1062,678.5C 1060.03,680.55 1057.87,682.217 1055.5,683.5C 714.5,683.5 373.5,683.5 32.5,683.5C 28.7439,682.077 26.4106,679.411 25.5,675.5C 28.3737,664.333 31.7071,653.333 35.5,642.5C 381.167,641.167 726.833,641.167 1072.5,642.5 Z"/></g>
</svg>
